<svg xmlns="http://www.w3.org/2000/svg" xmlns:xlink="http://www.w3.org/1999/xlink" width="500" zoomAndPan="magnify" viewBox="0 0 375 374.999991" height="500" preserveAspectRatio="xMidYMid meet" version="1.0"><defs><g/></defs><g fill="#000000" fill-opacity="1"><g transform="translate(41.273714, 245.437719)"><g><path d="M 11.972656 0.300781 L 39.507812 -0.300781 L 69.738281 0.300781 C 71.535156 0 71.832031 -1.195312 71.832031 -2.09375 C 71.832031 -2.992188 71.535156 -4.191406 69.738281 -4.789062 L 49.984375 -4.789062 C 45.496094 -4.789062 42.203125 -9.277344 42.203125 -14.964844 L 42.203125 -178.984375 C 42.203125 -181.082031 43.101562 -181.976562 44.296875 -181.976562 C 45.496094 -181.976562 46.390625 -181.378906 46.992188 -180.183594 L 152.347656 -1.195312 C 154.742188 2.09375 156.539062 3.292969 158.632812 3.292969 C 161.324219 3.292969 162.523438 1.496094 162.523438 -1.796875 L 162.523438 -200.835938 C 162.523438 -206.820312 165.816406 -211.308594 170.304688 -211.308594 L 186.765625 -211.308594 C 188.265625 -211.910156 188.863281 -212.808594 188.863281 -213.703125 C 188.863281 -214.902344 188.265625 -215.800781 186.765625 -216.398438 L 159.828125 -215.800781 L 129 -216.398438 C 127.503906 -215.800781 127.207031 -214.902344 127.207031 -213.703125 C 127.207031 -212.808594 127.503906 -211.910156 129 -211.308594 L 148.753906 -211.308594 C 153.246094 -211.308594 156.835938 -206.820312 156.835938 -200.835938 L 156.835938 -61.058594 C 156.835938 -58.964844 155.9375 -58.066406 154.742188 -58.066406 C 153.246094 -58.066406 152.347656 -58.964844 151.449219 -60.460938 L 63.453125 -211.308594 C 61.957031 -214.003906 59.5625 -216.398438 56.570312 -216.398438 L 42.800781 -215.800781 L 7.183594 -216.398438 C 5.6875 -215.800781 5.386719 -214.902344 5.386719 -213.703125 C 5.386719 -212.808594 5.6875 -211.910156 7.183594 -211.308594 L 22.449219 -211.308594 C 30.230469 -211.308594 36.515625 -201.132812 36.515625 -187.066406 L 36.515625 -14.964844 C 36.515625 -9.277344 33.222656 -4.789062 28.734375 -4.789062 L 11.972656 -4.789062 C 10.476562 -4.191406 10.175781 -2.992188 10.175781 -2.09375 C 10.175781 -1.195312 10.476562 0 11.972656 0.300781 Z M 11.972656 0.300781 "/></g></g></g><g fill="#000000" fill-opacity="1"><g transform="translate(175.31869, 348.184412)"><g><path d="M 11.671875 0.300781 L 49.386719 -0.300781 L 90.691406 0.300781 C 92.1875 0 92.785156 -1.195312 92.785156 -2.09375 C 92.785156 -2.992188 92.1875 -4.191406 90.691406 -4.789062 L 67.644531 -4.789062 C 66.445312 -4.789062 65.546875 -5.6875 65.546875 -6.882812 L 65.546875 -102.660156 L 84.703125 -101.765625 C 99.96875 -100.867188 108.949219 -93.980469 108.949219 -78.417969 L 108.949219 -66.746094 C 109.546875 -65.25 110.445312 -64.648438 111.34375 -64.648438 C 112.238281 -64.648438 113.4375 -65.25 114.035156 -66.746094 L 113.136719 -104.457031 L 114.035156 -138.878906 C 113.4375 -140.675781 112.238281 -140.972656 111.34375 -140.972656 C 110.445312 -140.972656 109.546875 -140.675781 108.949219 -138.878906 L 108.949219 -131.695312 C 108.949219 -115.832031 99.96875 -108.949219 84.703125 -108.050781 L 65.546875 -107.152344 L 65.546875 -209.214844 C 65.546875 -210.414062 66.445312 -211.308594 67.644531 -211.308594 L 99.371094 -210.710938 C 126.007812 -210.113281 137.679688 -188.863281 140.074219 -162.824219 L 140.972656 -152.644531 C 141.273438 -150.851562 142.46875 -150.550781 143.367188 -150.550781 C 144.265625 -150.550781 145.464844 -150.851562 145.761719 -152.644531 L 142.46875 -214.902344 C 142.46875 -216.097656 141.570312 -216.996094 140.675781 -216.996094 L 49.386719 -215.800781 L 11.671875 -216.398438 C 10.175781 -215.800781 9.878906 -214.902344 9.878906 -213.703125 C 9.878906 -212.808594 10.175781 -211.910156 11.671875 -211.308594 L 31.425781 -211.308594 C 32.625 -211.308594 33.523438 -210.414062 33.523438 -209.214844 L 33.523438 -6.882812 C 33.523438 -5.6875 32.625 -4.789062 31.425781 -4.789062 L 11.671875 -4.789062 C 10.175781 -4.191406 9.878906 -2.992188 9.878906 -2.09375 C 9.878906 -1.195312 10.175781 0 11.671875 0.300781 Z M 11.671875 0.300781 "/></g></g></g></svg>